<svg xmlns="http://www.w3.org/2000/svg" viewBox="0 0 626 75"><defs><style>.cls-1,.cls-2{fill:none;stroke:#fff;stroke-linecap:round;stroke-miterlimit:10;}.cls-1{stroke-width:4px;}.cls-2{stroke-width:2px;}</style></defs><g id="Layer_2" data-name="Layer 2"><g id="Layer_2-2" data-name="Layer 2"><line class="cls-1" x1="329" y1="50" x2="611" y2="50"/><line class="cls-1" x1="624" y1="25" x2="611" y2="50"/><line class="cls-1" x1="592" y1="2" x2="624" y2="25"/><line class="cls-1" x1="558" y1="21" x2="592" y2="2"/><line class="cls-1" x1="313" y1="21" x2="578" y2="21"/><line class="cls-1" x1="595" y1="37" x2="578" y2="21"/><line class="cls-1" x1="578" y1="57" x2="595" y2="37"/><line class="cls-1" x1="371" y1="57" x2="578" y2="57"/><line class="cls-1" x1="354" y1="73" x2="371" y2="57"/><line class="cls-1" x1="313" y1="35" x2="354" y2="73"/><line class="cls-1" x1="297" y1="50" x2="15" y2="50"/><line class="cls-1" x1="2" y1="25" x2="15" y2="50"/><line class="cls-1" x1="34" y1="2" x2="2" y2="25"/><line class="cls-1" x1="68" y1="21" x2="34" y2="2"/><line class="cls-1" x1="313" y1="21" x2="48" y2="21"/><line class="cls-1" x1="31" y1="37" x2="48" y2="21"/><line class="cls-1" x1="48" y1="57" x2="31" y2="37"/><line class="cls-1" x1="255" y1="57" x2="48" y2="57"/><line class="cls-1" x1="272" y1="73" x2="255" y2="57"/><line class="cls-1" x1="313" y1="35" x2="272" y2="73"/><line class="cls-2" x1="591" y1="12" x2="575" y2="20"/><line class="cls-2" x1="610" y1="26" x2="591" y2="12"/><line class="cls-2" x1="599" y1="50" x2="610" y2="26"/><line class="cls-2" x1="34" y1="12" x2="50" y2="20"/><line class="cls-2" x1="15" y1="26" x2="34" y2="12"/><line class="cls-2" x1="26" y1="50" x2="15" y2="26"/></g></g></svg>