<svg xmlns="http://www.w3.org/2000/svg" viewBox="0 0 296 58"><defs><style>.cls-1,.cls-2{fill:none;stroke:#fff;stroke-linecap:round;stroke-miterlimit:10;}.cls-1{stroke-width:2px;}.cls-2{stroke-width:4px;}</style></defs><g id="Layer_2" data-name="Layer 2"><g id="Layer_2-2" data-name="Layer 2"><line class="cls-1" x1="24" y1="12" x2="148" y2="12"/><line class="cls-1" x1="24" y1="47" x2="148" y2="47"/><line class="cls-1" x1="12" y1="28" x2="24" y2="47"/><line class="cls-1" x1="24" y1="12" x2="12" y2="28"/><line class="cls-1" x1="272" y1="12" x2="148" y2="12"/><line class="cls-1" x1="272" y1="47" x2="148" y2="47"/><line class="cls-1" x1="284" y1="28" x2="272" y2="47"/><line class="cls-1" x1="272" y1="12" x2="284" y2="28"/><line class="cls-2" x1="23" y1="2" x2="147" y2="2"/><line class="cls-2" x1="147" y1="56" x2="20" y2="56"/><line class="cls-2" x1="2" y1="28" x2="20" y2="56"/><line class="cls-2" x1="23" y1="2" x2="2" y2="28"/><line class="cls-2" x1="273" y1="2" x2="147" y2="2"/><line class="cls-2" x1="147" y1="56" x2="276" y2="56"/><line class="cls-2" x1="294" y1="28" x2="276" y2="56"/><line class="cls-2" x1="273" y1="2" x2="294" y2="28"/></g></g></svg>